<?xml version="1.0" encoding="UTF-8" standalone="no"?>
<!-- Created with Inkscape (http://www.inkscape.org/) -->

<svg
   xmlns:dc="http://purl.org/dc/elements/1.1/"
   xmlns:cc="http://creativecommons.org/ns#"
   xmlns:rdf="http://www.w3.org/1999/02/22-rdf-syntax-ns#"
   xmlns:svg="http://www.w3.org/2000/svg"
   xmlns="http://www.w3.org/2000/svg"
   xmlns:xlink="http://www.w3.org/1999/xlink"
   xmlns:sodipodi="http://sodipodi.sourceforge.net/DTD/sodipodi-0.dtd"
   xmlns:inkscape="http://www.inkscape.org/namespaces/inkscape"
   width="500mm"
   height="500mm"
   viewBox="0 0 500 500"
   version="1.1"
   id="svg8"
   sodipodi:docname="zoom.svg"
   inkscape:version="0.92.4 (5da689c313, 2019-01-14)">
  <defs
     id="defs2">
    <linearGradient
       inkscape:collect="always"
       id="linearGradient4592">
      <stop
         style="stop-color:#0064ef;stop-opacity:1"
         offset="0"
         id="stop4588" />
      <stop
         style="stop-color:#56bcfc;stop-opacity:1"
         offset="1"
         id="stop4590" />
    </linearGradient>
    <style
       id="style4534">.cls-1{fill:#2d8cff;fill-rule:evenodd;}</style>
    <linearGradient
       inkscape:collect="always"
       xlink:href="#linearGradient4592"
       id="linearGradient4594"
       x1="251.23335"
       y1="335.36197"
       x2="251.23335"
       y2="35.485565"
       gradientUnits="userSpaceOnUse" />
  </defs>
  <sodipodi:namedview
     id="base"
     pagecolor="#ffffff"
     bordercolor="#666666"
     borderopacity="1.0"
     inkscape:pageopacity="0.0"
     inkscape:pageshadow="2"
     inkscape:zoom="0.24748737"
     inkscape:cx="1360.9791"
     inkscape:cy="518.02254"
     inkscape:document-units="mm"
     inkscape:current-layer="layer2"
     showgrid="false"
     inkscape:pagecheckerboard="true"
     inkscape:window-width="1920"
     inkscape:window-height="1017"
     inkscape:window-x="1912"
     inkscape:window-y="-8"
     inkscape:window-maximized="1" />
  <metadata
     id="metadata5">
    <rdf:RDF>
      <cc:Work
         rdf:about="">
        <dc:format>image/svg+xml</dc:format>
        <dc:type
           rdf:resource="http://purl.org/dc/dcmitype/StillImage" />
        <dc:title></dc:title>
      </cc:Work>
    </rdf:RDF>
  </metadata>
  <g
     inkscape:label="Text"
     inkscape:groupmode="layer"
     id="layer1"
     transform="translate(0,203)">
    <g
       data-name="Layer 2"
       id="Layer_2"
       transform="matrix(0.38475128,0,0,0.38475128,0.09442482,184.65263)">
      <g
         data-name="Layer 1"
         id="Layer_1-2">
        <path
           id="path4540"
           d="m 485.22,84 a 87.58,87.58 0 1 1 -123.85,0 87.56,87.56 0 0 1 123.85,0 z M 423.39,0 a 146,146 0 1 1 -0.19,0 z m 368.36,84 a 87.58,87.58 0 1 1 -123.86,0 87.58,87.58 0 0 1 123.86,0 z M 833,42.75 A 146,146 0 1 1 729.73,0 146,146 0 0 1 833,42.75 Z M 58.39,291.2 l 14.59,0.73 h 219 l -0.73,-14.58 c -1.95,-24 -19,-41.57 -43.06,-43.08 l -14.6,-0.73 H 102.18 L 277.33,58.39 276.6,43.81 C 275.45,19.58 257.72,2 233.54,0.73 L 219,0 H 0 l 0.73,14.58 c 1.89,23.75 19.17,41.7 43,43.08 l 14.62,0.73 h 131.4 L 14.6,233.54 l 0.73,14.59 c 1.44,24.06 18.81,41.47 43.06,43.07 z M 1057.68,87.49 c 5,8.61 6.57,18.32 7.13,29.28 l 0.73,14.6 v 102.17 l 0.73,14.58 c 1.44,23.88 19,41.55 43.07,43.08 l 14.59,0.73 V 131.37 l 0.73,-14.6 c 0.57,-10.82 2.15,-20.76 7.19,-29.39 a 58.41,58.41 0 0 1 101,0.19 c 5,8.59 6.51,18.51 7.09,29.2 l 0.73,14.58 v 102.19 l 0.73,14.58 c 1.51,24 19,41.68 43.07,43.08 l 14.58,0.73 V 116.77 A 116.77,116.77 0 0 0 1094.7,39.53 116.79,116.79 0 0 0 941.76,20 C 930.4,7.38 905,0 890.38,0 v 291.93 l 14.6,-0.73 c 24.38,-1.6 42.11,-18.82 43.06,-43 l 0.73,-14.61 V 131.37 l 0.73,-14.6 c 0.61,-11 2.14,-20.71 7.16,-29.33 a 58.41,58.41 0 0 1 101,0 z"
           class="cls-1"
           inkscape:connector-curvature="0"
           style="fill:#2d8cff;fill-rule:evenodd" />
      </g>
    </g>
  </g>
  <g
     inkscape:groupmode="layer"
     id="layer2"
     inkscape:label="Icon Shape">
    <g
       id="g4558">
      <rect
         rx="46.875"
         y="34.951027"
         x="100"
         height="300"
         width="300"
         id="rect4555"
         style="fill:url(#linearGradient4594);fill-opacity:1;stroke-width:0.26458332" />
    </g>
    <path
       style="fill:none;stroke:none;stroke-width:0.265;stroke-linecap:butt;stroke-linejoin:miter;stroke-opacity:1;stroke-miterlimit:4;stroke-dasharray:none"
       d="m 206.76663,277.48587 h 82.73971"
       id="path4611"
       inkscape:connector-curvature="0" />
  </g>
  <g
     id="g4605"
     transform="translate(-7.6293945e-6,-17.818954)">
    <path
       inkscape:connector-curvature="0"
       id="path4599"
       d="m 168.0057,114.91738 33.54312,180.38745 h 5.21782 l 0.74541,8.19945 81.24888,-0.74539 0.74543,-7.45406 7.45401,-0.74539 35.03392,-178.15127 z"
       style="fill:#ffffff;fill-opacity:1;stroke:none;stroke-width:0.36895552px;stroke-linecap:butt;stroke-linejoin:miter;stroke-opacity:1" />
    <rect
       rx="8.5819445"
       y="102.03568"
       x="160.73198"
       height="16.30344"
       width="178.53606"
       id="rect4601"
       style="fill:#ffffff;fill-opacity:1;stroke:none;stroke-width:0.24298982" />
  </g>
</svg>
