<?xml version="1.0" encoding="UTF-8" standalone="no"?>
<svg
   xmlns:dc="http://purl.org/dc/elements/1.1/"
   xmlns:cc="http://creativecommons.org/ns#"
   xmlns:rdf="http://www.w3.org/1999/02/22-rdf-syntax-ns#"
   xmlns:svg="http://www.w3.org/2000/svg"
   xmlns="http://www.w3.org/2000/svg"
   xmlns:sodipodi="http://sodipodi.sourceforge.net/DTD/sodipodi-0.dtd"
   xmlns:inkscape="http://www.inkscape.org/namespaces/inkscape"
   version="1.1"
   x="0px"
   y="0px"
   viewBox="0 0 99.999999 100"
   enable-background="new 0 0 100 100"
   xml:space="preserve"
   id="svg24"
   sodipodi:docname="solo_cup.svg"
   width="100"
   height="100"
   inkscape:version="0.92.4 (5da689c313, 2019-01-14)"><title
     id="title4543">Red Solo Cup</title><metadata
     id="metadata30"><rdf:RDF><cc:Work
         rdf:about=""><dc:format>image/svg+xml</dc:format><dc:type
           rdf:resource="http://purl.org/dc/dcmitype/StillImage" /><dc:title>Red Solo Cup</dc:title></cc:Work></rdf:RDF></metadata><defs
     id="defs28" /><sodipodi:namedview
     pagecolor="#ffffff"
     bordercolor="#666666"
     borderopacity="1"
     objecttolerance="10"
     gridtolerance="10"
     guidetolerance="10"
     inkscape:pageopacity="0"
     inkscape:pageshadow="2"
     inkscape:window-width="1920"
     inkscape:window-height="1017"
     id="namedview26"
     showgrid="false"
     inkscape:zoom="5.3400704"
     inkscape:cx="37.662323"
     inkscape:cy="29.225983"
     inkscape:window-x="1912"
     inkscape:window-y="-8"
     inkscape:window-maximized="1"
     inkscape:current-layer="svg24" /><g
     id="g18"
     transform="translate(-4.428069e-7,0.0385)"
     style="fill:#aa0000"><g
       id="g16"
       style="fill:#aa0000"><path
         d="M 83.472,5.03 H 16.528 c -1.034,0 -1.879,0.846 -1.879,1.879 0,1.034 0.846,1.88 1.879,1.88 h 66.944 c 1.034,0 1.879,-0.846 1.879,-1.88 C 85.352,5.876 84.506,5.03 83.472,5.03 Z"
         id="path2"
         inkscape:connector-curvature="0"
         style="fill:#aa0000" /><polygon
         points="78.194,39.045 79.322,27.393 20.678,27.393 21.806,39.045 "
         id="polygon4"
         style="fill:#aa0000" /><polygon
         points="73.307,80.132 77.441,40.695 22.559,40.695 26.316,80.132 "
         id="polygon6"
         style="fill:#aa0000" /><polygon
         points="82.703,12.725 83.079,10.469 16.921,10.469 17.297,12.725 "
         id="polygon8"
         style="fill:#aa0000" /><polygon
         points="81.388,15.958 81.764,13.703 18.236,13.703 18.612,15.958 "
         id="polygon10"
         style="fill:#aa0000" /><polygon
         points="79.509,25.863 80.637,17.593 19.363,17.593 20.115,25.863 "
         id="polygon12"
         style="fill:#aa0000" /><path
         d="m 28.507,92.908 c 0,1.092 0.909,1.985 2.02,1.985 h 38.946 c 1.111,0 2.02,-0.893 2.02,-1.985 L 72.998,81.791 H 27.002 Z"
         id="path14"
         inkscape:connector-curvature="0"
         style="fill:#aa0000" /></g></g></svg>